<?xml version="1.0" encoding="utf-8"?>
<!-- Generator: Adobe Illustrator 17.1.0, SVG Export Plug-In . SVG Version: 6.00 Build 0)  -->
<!DOCTYPE svg PUBLIC "-//W3C//DTD SVG 1.1//EN" "http://www.w3.org/Graphics/SVG/1.1/DTD/svg11.dtd">
<svg version="1.1" xmlns="http://www.w3.org/2000/svg" xmlns:xlink="http://www.w3.org/1999/xlink" x="0px" y="0px" width="64px"
	 height="64px" viewBox="0 0 64 64" enable-background="new 0 0 64 64" xml:space="preserve">
<g id="Layer_3">
</g>
<g id="Layer_1" opacity="0.6">
	<path fill-rule="evenodd" clip-rule="evenodd" fill="#373737" d="M32,64C14.3,64,0,49.7,0,32C0,14.3,14.3,0,32,0s32,14.3,32,32
		C64,49.7,49.7,64,32,64z"/>
</g>
<g id="Layer_2">
	<path fill-rule="evenodd" clip-rule="evenodd" fill="#FFFFFF" d="M32,64C14.3,64,0,49.7,0,32C0,14.3,14.3,0,32,0s32,14.3,32,32
		C64,49.7,49.7,64,32,64z M32,6C17.6,6,6,17.6,6,32s11.6,26,26,26c14.4,0,26-11.6,26-26S46.4,6,32,6z M43.5,34.6l-15.9,10l0,0
		c-0.1,0.1-0.2,0.1-0.4,0.2c0,0,0,0,0,0c-0.1,0.1-0.2,0.1-0.4,0.1c0,0,0,0,0,0c-0.1,0-0.1,0-0.2,0c0,0,0,0,0,0c-0.1,0-0.1,0-0.2,0
		c0,0,0,0,0,0c-0.1,0-0.1,0-0.2,0c0,0,0,0-0.1,0c-0.1,0-0.1,0-0.2,0c-1.7,0-3-1.3-3-3l0,0l0,0V22l0,0c0-1.7,1.3-3,3-3
		c0.6,0,1.2,0.2,1.7,0.5l15.8,9.9c0.9,0.5,1.5,1.5,1.5,2.6C45,33.1,44.4,34.1,43.5,34.6z"/>
</g>
</svg>